<?xml version="1.0" encoding="UTF-8"?>
<svg width="128" height="128" version="1.1" viewBox="0 0 128 128" xmlns="http://www.w3.org/2000/svg">
  <defs>
    <linearGradient id="grad1" x1="0%" y1="0%" x2="0%" y2="100%">
      <stop offset="0%" style="stop-color:#F1B82D;stop-opacity:1" />
      <stop offset="100%" style="stop-color:#D79900;stop-opacity:1" />
    </linearGradient>
  </defs>
  
  <!-- Background circle -->
  <circle cx="64" cy="64" r="60" fill="url(#grad1)"/>
  
  <!-- Plate -->
  <circle cx="64" cy="68" r="42" fill="#FFFFFF" stroke="#222222" stroke-width="3"/>
  
  <!-- Fork -->
  <g transform="translate(35, 35)">
    <rect x="0" y="0" width="4" height="50" fill="#222222" rx="2"/>
    <rect x="-6" y="0" width="3" height="20" fill="#222222" rx="1.5"/>
    <rect x="0" y="0" width="3" height="20" fill="#222222" rx="1.5"/>
    <rect x="6" y="0" width="3" height="20" fill="#222222" rx="1.5"/>
  </g>
  
  <!-- Knife -->
  <g transform="translate(85, 35)">
    <rect x="0" y="0" width="4" height="50" fill="#222222" rx="2"/>
    <polygon points="0,0 4,0 4,15 2,18 0,15" fill="#222222"/>
  </g>
  
  <!-- Decorative food items on plate -->
  <circle cx="64" cy="60" r="8" fill="#BD4D1F"/>
  <ellipse cx="55" cy="72" rx="6" ry="4" fill="#3F8F26"/>
  <ellipse cx="73" cy="72" rx="6" ry="4" fill="#3F8F26"/>
  <rect x="60" y="75" width="8" height="6" fill="#D79900" rx="2"/>
</svg>
